<svg width="1080" height="1920" viewBox="0 0 1080 1920" fill="none" xmlns="http://www.w3.org/2000/svg">
<g clip-path="url(#clip0_12_211)">
<circle cx="136.779" cy="652.988" r="9.84051" stroke="#11385B" stroke-width="2"/>
<circle cx="276.994" cy="522.184" r="9.84051" stroke="#11385B" stroke-width="2"/>
<path d="M277.565 533.025V550.141L177.148 649.418L147.479 651.7" stroke="#11385B" stroke-width="2"/>
<circle cx="149.473" cy="592.933" r="9.84051" stroke="#11385B" stroke-width="2"/>
<circle cx="217.657" cy="535.878" r="9.84051" stroke="#11385B" stroke-width="2"/>
<path d="M215.945 544.436V561.552L181.712 593.503H160.031" stroke="#11385B" stroke-width="2"/>
<circle cx="68.0309" cy="667.964" r="9.84051" stroke="#11385B" stroke-width="2"/>
<path d="M67.6015 657.405V620.89L-44.2269 509.062V464.558" stroke="#11385B" stroke-width="2"/>
<circle cx="108.111" cy="707.044" r="9.84051" stroke="#11385B" stroke-width="2"/>
<path d="M98.4113 706.473H72.1659L-41.3741 601.491V552.424" stroke="#11385B" stroke-width="2"/>
<circle cx="126.086" cy="770.945" r="9.84051" stroke="#11385B" stroke-width="2"/>
<path d="M115.528 770.375H92.7058L60.7548 727.013H-63.6257" stroke="#11385B" stroke-width="2"/>
<path d="M96.7 911.731C102.135 911.731 106.54 916.137 106.54 921.572C106.54 927.006 102.135 931.411 96.7 931.412C91.2654 931.412 86.8594 927.006 86.8592 921.572C86.8592 916.137 91.2653 911.731 96.7 911.731Z" stroke="#11385B" stroke-width="2"/>
<circle cx="193.553" cy="1039.25" r="9.84051" stroke="#11385B" stroke-width="2"/>
<path d="M96.1292 931.271V1039.68H182.853" stroke="#11385B" stroke-width="2"/>
<path d="M900.039 1783.54C905.473 1783.54 909.879 1787.94 909.879 1793.38C909.878 1798.81 905.473 1803.22 900.039 1803.22C894.604 1803.22 890.198 1798.81 890.198 1793.38C890.198 1787.94 894.604 1783.54 900.039 1783.54Z" stroke="#11385B" stroke-width="2"/>
<circle cx="1009.58" cy="1870.97" r="9.84051" stroke="#11385B" stroke-width="2"/>
<path d="M909.738 1793.95H931.419L1002.17 1865.84" stroke="#11385B" stroke-width="2"/>
<circle cx="51.0555" cy="992.32" r="9.84051" stroke="#11385B" stroke-width="2"/>
<path d="M58.4726 984.903L80.1537 954.093L47.0616 922.142H-78.4601" stroke="#11385B" stroke-width="2"/>
<circle cx="154.755" cy="1121.41" r="9.84051" stroke="#11385B" stroke-width="2"/>
<path d="M144.056 1121.84H132.645L47.0616 1045.38H-78.4601" stroke="#11385B" stroke-width="2"/>
<circle cx="154.957" cy="993.669" r="9.84051" stroke="#11385B" stroke-width="2"/>
<path d="M146.54 987.393L123.718 969.135V918.926L86.0615 882.411H-39.4601" stroke="#11385B" stroke-width="2"/>
<path d="M208.169 854.676C203.641 854.676 199.97 858.347 199.97 862.876C199.97 867.404 203.641 871.075 208.169 871.075C212.698 871.075 216.369 867.404 216.369 862.876C216.369 858.347 212.698 854.676 208.169 854.676Z" stroke="#11385B" stroke-width="2"/>
<path d="M54.4022 812.313C49.8737 812.313 46.2029 815.985 46.2029 820.513C46.2032 825.041 49.8739 828.712 54.4022 828.712C58.9307 828.712 62.6021 825.042 62.6024 820.513C62.6024 815.985 58.9308 812.313 54.4022 812.313Z" stroke="#11385B" stroke-width="2"/>
<path d="M63.4561 820.584H79.8927L113.387 863.946H200.111" stroke="#11385B" stroke-width="2"/>
<circle cx="103.264" cy="563.264" r="9.84051" stroke="#11385B" stroke-width="2"/>
<path d="M92.7058 563.835H75.5892L-20.2637 470.264V453.147" stroke="#11385B" stroke-width="2"/>
<circle cx="110.111" cy="604.344" r="9.84051" stroke="#11385B" stroke-width="2"/>
<path d="M99.5524 604.914H82.4358L-13.4171 511.344" stroke="#11385B" stroke-width="2"/>
<path d="M68.3135 498.651C73.7481 498.651 78.1533 503.057 78.1533 508.491C78.1532 513.926 73.748 518.331 68.3135 518.331C62.8788 518.331 58.4728 513.926 58.4727 508.491C58.4727 503.057 62.8787 498.651 68.3135 498.651Z" stroke="#11385B" stroke-width="2"/>
<circle cx="162.884" cy="508.491" r="9.84051" stroke="#11385B" stroke-width="2"/>
<path d="M152.043 509.062H79.0126" stroke="#11385B" stroke-width="2"/>
<circle cx="1007.3" cy="570.111" r="9.84051" stroke="#11385B" stroke-width="2"/>
<circle cx="901.32" cy="517.62" r="9.84051" stroke="#11385B" stroke-width="2"/>
<path d="M912.02 517.049H933.701L981.627 570.681H997.603" stroke="#11385B" stroke-width="2"/>
<circle cx="865.805" cy="464.129" r="9.84051" stroke="#28674C" stroke-width="2"/>
<path d="M866.376 474.828V536.448L963.37 657.405H999.885" stroke="#28674C" stroke-width="2"/>
<ellipse cx="1006.73" cy="658.547" rx="7.98774" ry="7.98774" fill="#28674C"/>
<circle cx="824.725" cy="481.104" r="9.84051" stroke="#28674C" stroke-width="2"/>
<path d="M824.155 490.804V551.283L1062.65 836.559H1101.44" stroke="#28674C" stroke-width="2"/>
<circle cx="974.351" cy="513.055" r="9.84051" stroke="#28674C" stroke-width="2"/>
<path d="M985.051 513.626H1110.57L1226.97 711.037H1265.76" stroke="#28674C" stroke-width="2"/>
<circle cx="904.603" cy="394.663" r="9.84051" stroke="#28674C" stroke-width="2"/>
<path d="M904.032 405.221V426.902L963.37 481.675H1005.59L1014.72 491.945H1161.92" stroke="#28674C" stroke-width="2"/>
<circle cx="920.578" cy="371.841" r="9.84051" stroke="#28674C" stroke-width="2"/>
<path d="M921.149 382.399V407.503L972.499 456.571H1015.86L1023.85 466.841H1171.05" stroke="#28674C" stroke-width="2"/>
<circle cx="797.339" cy="517.62" r="9.84051" stroke="#28674C" stroke-width="2"/>
<path d="M796.768 527.319V587.798L1035.26 873.074H1074.06" stroke="#28674C" stroke-width="2"/>
<ellipse cx="1079.76" cy="873.074" rx="7.98774" ry="7.98774" fill="#28674C"/>
<circle cx="909.167" cy="985.756" r="9.84051" stroke="#28674C" stroke-width="2"/>
<path d="M908.597 996.314V1024.84L957.664 1076.19H1001.03" stroke="#28674C" stroke-width="2"/>
<ellipse cx="1009.01" cy="1076.19" rx="7.98774" ry="7.98774" fill="#28674C"/>
<circle cx="995.891" cy="875.927" r="9.84051" stroke="#28674C" stroke-width="2"/>
<path d="M990.756 884.485L963.37 924.424" stroke="#28674C" stroke-width="2"/>
<circle cx="957.376" cy="932.982" r="9.84051" stroke="#28674C" stroke-width="2"/>
<circle cx="760.823" cy="951.24" r="9.84051" stroke="#28674C" stroke-width="2"/>
<path d="M760.253 940.4V867.369L648.424 795.479V737.283" stroke="#28674C" stroke-width="2"/>
<circle cx="648.995" cy="726.583" r="9.84051" stroke="#28674C" stroke-width="2"/>
<circle cx="702.768" cy="1153.07" r="9.84051" stroke="#28674C" stroke-width="2"/>
<path d="M710.044 1145.8L724.879 1125.26V954.093L737.431 933.553" stroke="#28674C" stroke-width="2"/>
<circle cx="742.566" cy="925.136" r="9.84051" stroke="#28674C" stroke-width="2"/>
<path d="M1195.01 1271.32H1088.89L856.106 1024.84V989.467L817.308 950.67V892.473" stroke="#28674C" stroke-width="2"/>
<circle cx="817.879" cy="881.774" r="9.84051" stroke="#28674C" stroke-width="2"/>
<circle cx="1046.1" cy="1855" r="9.84051" stroke="#28674C" stroke-width="2"/>
<path d="M1046.67 1845.3V1819.05L1014.72 1788.24H987.333" stroke="#28674C" stroke-width="2"/>
<circle cx="977.633" cy="1788.81" r="9.84051" stroke="#28674C" stroke-width="2"/>
<path d="M1102.58 1848.72L1012.44 1758.57H959.946L950.817 1748.3" stroke="#28674C" stroke-width="2"/>
<circle cx="943.4" cy="1740.89" r="9.84051" stroke="#28674C" stroke-width="2"/>
<path d="M1098.02 1755.15H1042.11L1017 1733.47H985.051L950.817 1699.24" stroke="#28674C" stroke-width="2"/>
<circle cx="943.4" cy="1692.96" r="9.84051" stroke="#28674C" stroke-width="2"/>
<circle cx="865.805" cy="1905.2" r="9.84051" stroke="#28674C" stroke-width="2"/>
<path d="M866.376 1894.36V1839.59L827.578 1798.51V1682.12" stroke="#28674C" stroke-width="2"/>
<circle cx="827.007" cy="1672.42" r="9.84051" stroke="#28674C" stroke-width="2"/>
<path d="M1010.16 1935.44V1925.17L969.075 1885.24V1868.12L953.1 1854.43" stroke="#28674C" stroke-width="2"/>
<circle cx="945.683" cy="1850.43" r="9.84051" stroke="#28674C" stroke-width="2"/>
<circle cx="904.603" cy="1850.43" r="9.84051" stroke="#28674C" stroke-width="2"/>
<path d="M896.044 1844.16L866.376 1814.49V1772.27L845.836 1752.87V1726.62" stroke="#28674C" stroke-width="2"/>
<circle cx="845.265" cy="1718.06" r="9.84051" stroke="#28674C" stroke-width="2"/>
<circle cx="763.106" cy="1695.24" r="9.84051" stroke="#28674C" stroke-width="2"/>
<path d="M763.676 1704.94V1783.68" stroke="#28674C" stroke-width="2"/>
<circle cx="763.106" cy="1793.38" r="9.84051" stroke="#28674C" stroke-width="2"/>
<circle cx="726.59" cy="1809.35" r="9.84051" stroke="#28674C" stroke-width="2"/>
<path d="M727.161 1819.05V1848.72L778.511 1901.21" stroke="#28674C" stroke-width="2"/>
<circle cx="788.21" cy="1905.2" r="9.84051" stroke="#28674C" stroke-width="2"/>
<path d="M1091.17 1232.52H1072.92L875.504 1021.42V979.197L853.823 957.516V901.602" stroke="#28674C" stroke-width="2"/>
<circle cx="854.394" cy="890.903" r="9.84051" stroke="#28674C" stroke-width="2"/>
<circle cx="885.345" cy="942.111" r="9.84051" stroke="#28674C" stroke-width="2"/>
<path d="M896.044 942.682H906.314L1001.03 1044.24H1058.08" stroke="#28674C" stroke-width="2"/>
<circle cx="1068.64" cy="1042.81" r="9.84051" stroke="#28674C" stroke-width="2"/>
<circle cx="1012.87" cy="923.853" r="9.84051" stroke="#28674C" stroke-width="2"/>
<path d="M1005.59 931.271L974.781 963.222L998.744 992.89" stroke="#28674C" stroke-width="2"/>
<circle cx="1004.02" cy="1001.17" r="9.84051" stroke="#28674C" stroke-width="2"/>
</g>
<defs>
<clipPath id="clip0_12_211">
<rect width="1080" height="1920" fill="white"/>
</clipPath>
</defs>
</svg>
